<svg xmlns="http://www.w3.org/2000/svg" width="224" height="166" viewBox="0 0 224 166">
  <defs>
    <style>
      .cls-1 {
        fill: #333;
        fill-rule: evenodd;
      }
    </style>
  </defs>
  <path id="シェイプ_2" data-name="シェイプ 2" class="cls-1" d="M86.306,55.987a3.042,3.042,0,0,0-2.4-1.778l-22.89-2.871a3.052,3.052,0,0,0-.755,6.057l13.494,1.693L63.573,64.2a3.054,3.054,0,0,0,1.363,5.783,3.022,3.022,0,0,0,1.358-.323L73.976,65.8,70.027,71.57a3.058,3.058,0,0,0,.784,4.244,3.034,3.034,0,0,0,4.229-.787l11-16.061A3.06,3.06,0,0,0,86.306,55.987Zm34.687-5.654-9.056-.526,3.355-1.684a3.05,3.05,0,0,0-2.72-5.46l-1.494.75,4.93-6.6a3.046,3.046,0,1,0-4.867-3.663L98.265,50.381a3.054,3.054,0,0,0,2.258,4.878l20.118,1.167c0.059,0,.119.005,0.178,0.005A3.052,3.052,0,0,0,120.992,50.333Zm-9.608,12.735a2.924,2.924,0,0,0-.753.031l-3.223.538a3.049,3.049,0,0,0-2.525,2.694l-0.2,1.946-1.687-.953a3.026,3.026,0,0,0-2.511-.215c-0.167.06-4.163,1.489-8.144,3.214-5.91,2.561-10.332,4.814-9.1,8.523a27.885,27.885,0,0,0,5.448,8.307c3.645,3.906,7.641,5.941,11.632,5.941a11.709,11.709,0,0,0,1.236-.065c11.918-1.262,18.06-10.536,17.966-19.044C119.453,67.856,116.183,63.469,111.384,63.068ZM100.915,86.959c-4.828.507-9.415-5.55-11.18-8.59a86.562,86.562,0,0,1,11.492-5.038l4.507,2.544a3.041,3.041,0,0,0,4.516-2.343l0.443-4.256,0.471-.079c1.527,0.381,2.25,2.724,2.274,4.855C113.482,78.053,110.921,85.9,100.915,86.959Zm-26.162,55.35-9.036,2.644-7.364-5.9-0.2,9.359L50.261,153.5l8.909,3.14,2.489,9.046,5.711-7.419,9.426,0.5-5.38-7.725Zm118.88-50.036-3.463-2.34c-4.378-2.958-12.809-7.651-16.795-7.651V77.7c4.924,0,12.262,3.963,16.462,6.5,2.007-7.06,7.986-12.387,17.508-15.53a60.392,60.392,0,0,1,16.036-2.82l0.092,4.578-0.046-2.289,0.047,2.289c-0.28.006-27.984,0.739-29.488,17.826ZM37.174,12.765L25.2,11.147,19.64,0.381l-5.129,10.87L2.6,13.1l8.81,8.336L9.6,33.349l10.573-5.718L30.972,33.14,28.7,21.27Zm135,55L160.2,66.147,154.64,55.382l-5.129,10.87L137.6,68.1l8.81,8.336L144.6,88.349l10.573-5.718,10.8,5.509L163.7,76.27ZM18.422,57.5L12,58.885,7.173,54.412l-0.61,6.5L0.821,64.063l6.042,2.63,1.28,6.419,4.344-4.877,6.534,0.818-3.358-5.644Zm159,75L171,133.885l-4.829-4.473-0.61,6.5-5.742,3.149,6.042,2.629,1.28,6.419,4.344-4.877,6.534,0.819-3.357-5.644ZM50.6,78.129l-6.56.313-4.027-5.207-1.672,6.313-6.183,2.16L37.685,85.3l0.206,6.542,5.088-4.1,6.31,1.883-2.383-6.119Zm125-66-6.561.313-4.027-5.207-1.671,6.313-6.183,2.16,5.527,3.589,0.206,6.542,5.088-4.1,6.31,1.883-2.383-6.119ZM37.252,115.85H39.76v-3.072l2.2,3.072h2.112v-8H41.56v3.084l-2.208-3.084h-2.1v8ZM50,113.486a4.2,4.2,0,0,0,2.238,2.238,4.2,4.2,0,0,0,3.264,0,4.2,4.2,0,0,0,2.238-2.238,4.2,4.2,0,0,0,0-3.264,4.2,4.2,0,0,0-2.238-2.238,4.2,4.2,0,0,0-3.264,0A4.2,4.2,0,0,0,50,110.222,4.2,4.2,0,0,0,50,113.486Zm2.322-2.286a1.707,1.707,0,0,1,.36-0.534,1.732,1.732,0,0,1,.534-0.36,1.686,1.686,0,0,1,1.308,0,1.734,1.734,0,0,1,.534.36,1.713,1.713,0,0,1,.36.534,1.686,1.686,0,0,1,0,1.308,1.691,1.691,0,0,1-.36.534,1.667,1.667,0,0,1-.534.36,1.686,1.686,0,0,1-1.308,0,1.664,1.664,0,0,1-.534-0.36,1.684,1.684,0,0,1-.36-0.534A1.686,1.686,0,0,1,52.326,111.2Zm12.99,4.65h1.992l0.8-2.424,0.8,2.424h1.992l2.64-8H70.836l-0.924,2.8-0.924-2.8H67.236l-0.924,2.8-0.924-2.8H62.676Zm20.412,0H90.6v-2.1H88.392v-5.9H85.728v8Zm10.182-2.364a4.2,4.2,0,0,0,2.238,2.238,4.2,4.2,0,0,0,3.264,0,4.2,4.2,0,0,0,2.238-2.238,4.2,4.2,0,0,0,0-3.264,4.2,4.2,0,0,0-2.238-2.238,4.2,4.2,0,0,0-3.264,0,4.2,4.2,0,0,0-2.238,2.238A4.2,4.2,0,0,0,95.91,113.486Zm2.322-2.286a1.71,1.71,0,0,1,.36-0.534,1.732,1.732,0,0,1,.534-0.36,1.687,1.687,0,0,1,1.308,0,1.685,1.685,0,0,1,.894.894,1.686,1.686,0,0,1,0,1.308,1.7,1.7,0,0,1-.36.534,1.666,1.666,0,0,1-.534.36,1.687,1.687,0,0,1-1.308,0,1.664,1.664,0,0,1-.534-0.36,1.687,1.687,0,0,1-.36-0.534A1.686,1.686,0,0,1,98.232,111.2Zm10.254,4.65h2.52l0.264-.72h2.424l0.264,0.72h2.52l-3.036-8h-1.92Zm3.456-2.484,0.54-1.4,0.54,1.4h-1.08Zm11.885,2.484a7.129,7.129,0,0,0,2.01-.258,4.075,4.075,0,0,0,1.488-.762,3.251,3.251,0,0,0,.924-1.254,4.887,4.887,0,0,0,0-3.468,3.266,3.266,0,0,0-.924-1.254,4.021,4.021,0,0,0-1.488-.756,7.326,7.326,0,0,0-2.01-.252h-2.22v8h2.22Zm0.336-5.724a2.087,2.087,0,0,1,1.392.42,1.961,1.961,0,0,1,0,2.6,2.057,2.057,0,0,1-1.392.426v-3.444Zm10.044,5.724h2.712v-8h-2.712v8Zm8.639,0h2.508v-3.072l2.2,3.072h2.112v-8h-2.508v3.084l-2.208-3.084h-2.1v8Zm19.178-7.344a3.1,3.1,0,0,0-.66-0.42,4.383,4.383,0,0,0-1.992-.432,3.979,3.979,0,0,0-1.614.33,4.041,4.041,0,0,0-1.3.9,4.217,4.217,0,0,0-.858,1.338,4.3,4.3,0,0,0-.312,1.632,4.173,4.173,0,0,0,1.23,2.988,4.245,4.245,0,0,0,4.11,1.056,4.09,4.09,0,0,0,1.026-.444,4.158,4.158,0,0,0,.858-0.69,4.362,4.362,0,0,0,.66-0.894v-2.664h-3.084v1.68h0.72a1.752,1.752,0,0,1-.576.474,1.581,1.581,0,0,1-.744.174,1.7,1.7,0,0,1-.654-0.126,1.65,1.65,0,0,1-.534-0.348,1.592,1.592,0,0,1-.36-0.534,1.7,1.7,0,0,1-.132-0.672,1.86,1.86,0,0,1,.12-0.672,1.626,1.626,0,0,1,.33-0.534,1.526,1.526,0,0,1,.5-0.348,1.57,1.57,0,0,1,.636-0.126,2.143,2.143,0,0,1,.636.1,1.489,1.489,0,0,1,.54.294Z"/>
</svg>
