<?xml version="1.0" standalone="no"?><!DOCTYPE svg PUBLIC "-//W3C//DTD SVG 1.1//EN" "http://www.w3.org/Graphics/SVG/1.1/DTD/svg11.dtd"><svg t="1666858708895" class="icon" viewBox="0 0 1024 1024" version="1.1" xmlns="http://www.w3.org/2000/svg" p-id="1741" xmlns:xlink="http://www.w3.org/1999/xlink" width="200" height="200"><path d="M303.4112 332.62592c-54.69184 94.13632-361.472 257.87392-154.49088 449.06496 52.3776 48.384 119.808 77.18912 190.90432 82.944C541.09184 881.12128 1043.4048 957.44 913.29536 628.736 807.936 362.56768 640.512 273.85856 553.85088 256.23552c-16.08704-3.30752-182.79424-40.0384-250.43968 76.3904z" fill="#86BAB6" p-id="1742"></path><path d="M414.33088 462.06976s83.968 50.83136 116.736 55.95136c0 0-50.96448 80.14848-51.712 106.16832h-13.03552l-1.31072-9.91232 39.936-89.92768s-39.99744-23.1424-69.15072-27.02336z" fill="#99764B" p-id="1743"></path><path d="M480.37888 617.19552l22.528 9.02144 10.57792-11.60192 4.096 5.80608s-15.69792 20.14208-16.72192 23.21408c0 0-9.87136-7.70048-30.19776-11.19232l-8.6528-15.81056 3.01056-2.3552z" fill="#99764B" p-id="1744"></path><path d="M531.05664 518.02112l-18.176 6.32832 12.63616 2.67264 5.53984-9.00096z" fill="#A88451" p-id="1745"></path><path d="M488.71424 560.896l-16.01536 71.91552-2.048-0.36864-8.6528-15.8208 3.09248-2.69312 23.62368-53.03296zM436.13184 474.76736l14.31552 25.73312-14.65344-3.1744-21.46304-35.25632 21.80096 12.6976z" fill="#7F6241" opacity=".41" p-id="1746"></path><path d="M286.22848 374.84544s-29.184 42.09664 0 75.54048 96.768 21.85216 119.808 0c15.104-14.336 6.44096-45.99808-1.32096-66.0992A75.776 75.776 0 0 0 369.2032 344.064c-21.52448-11.18208-52.736-14.11072-82.97472 30.78144z" fill="#F5F4F4" p-id="1747"></path><path d="M299.5712 442.86976S175.32928 558.08 278.92736 616.11008C327.168 643.1232 366.592 640 394.97728 628.91008a86.49728 86.49728 0 0 0 46.52032-117.67808c-9.69728-20.33664-26.4704-43.93984-54.36416-70.20544z" fill="#F5F4F4" p-id="1748"></path><path d="M250.18368 592.16896S139.02848 715.13088 230.94272 793.8048c40.47872 34.64192 95.9488 43.34592 145.34656 42.24 118.85568-2.6624 177.47968-146.72896 93.89056-231.2704-7.86432-7.94624-16.67072-16.01536-26.53184-24.1664z" fill="#F5F4F4" p-id="1749"></path><path d="M201.9328 674.8672s51.37408 85.62688 181.9136 126.5152l-110.592 15.99488-63.01696-46.6432s-44.9536-48.24064-8.30464-95.86688z" fill="#86BAB6" opacity=".21" p-id="1750"></path><path d="M195.7888 817.38752L903.92576 809.984S834.56 907.47904 567.296 897.3824c-314.91072-11.88864-371.5072-79.99488-371.5072-79.99488z" fill="#C1E8E4" p-id="1751"></path><path d="M269.81376 476.74368s43.8784 77.824 176.31232 46.39744c0 0-3.75808-16.384-21.16608-39.58784z" fill="#86BAB6" opacity=".21" p-id="1752"></path><path d="M154.03008 786.30912s64.08192-36.17792 135.76192 0c38.912 19.6608 82.74944 17.95072 114.61632 12.288a256 256 0 0 1 109.568 4.56704L553.984 813.64992l-356.82304 4.77184s-18.7392-8.18176-43.13088-32.11264z" fill="#C1E8E4" p-id="1753"></path><path d="M282.24512 445.2352s63.16032 30.07488 129.81248-4.20864c0 0 22.1184 5.12 12.9024 42.52672 0 0-99.328 34.51904-155.14624-6.8096 0 0-3.82976-22.72256 12.43136-31.50848z" fill="#C1382C" p-id="1754"></path><path d="M282.24512 445.2352s28.01664 30.63808 97.0752 21.1456a44.40064 44.40064 0 0 0 24.40192-11.264c4.01408-3.75808 7.48544-8.4992 8.33536-14.05952 0-0.03072-50.5856 22.17984-129.81248 4.17792z" fill="#B2322B" p-id="1755"></path><path d="M388.01408 395.264h45.58848a2.72384 2.72384 0 0 1 0.7168 5.34528l-43.68384 11.9296a8.7552 8.7552 0 0 1-10.88512-6.144c-0.52224-2.21184-0.2048-4.84352 1.8432-7.80288a7.79264 7.79264 0 0 1 6.42048-3.328z" fill="#EFDB9C" p-id="1756"></path><path d="M233.0624 380.24192m5.80608 0l150.72256 0q5.80608 0 5.80608 5.80608l0-0.01024q0 5.80608-5.80608 5.80608l-150.72256 0q-5.80608 0-5.80608-5.80608l0 0.01024q0-5.80608 5.80608-5.80608Z" fill="#353535" p-id="1757"></path><path d="M284.52864 358.8096s4.67968-73.97376-8.2944-116.31616A6.99392 6.99392 0 0 1 282.624 233.472l93.9008-4.7104a9.91232 9.91232 0 0 1 10.30144 11.40736c-3.2768 21.0432-8.43776 66.56-0.94208 111.3088z" fill="#353535" p-id="1758"></path><path d="M285.27616 337.12128l97.40288-13.60896 3.1744 27.97568-101.3248 7.3216 0.74752-21.68832z" fill="#C1382C" p-id="1759"></path><path d="M873.361596 106.809202m3.191491 1.079018l82.969049 28.051198q3.19149 1.079018 2.112472 4.270509l-0.00328 0.009701q-1.079018 3.19149-4.270509 2.112472l-82.969049-28.051198q-3.19149-1.079018-2.112472-4.270509l0.00328-0.0097q1.079018-3.19149 4.270509-2.112473Z" fill="#353535" p-id="1760"></path><path d="M887.99232 111.83104s19.16928-38.56384 21.76-64.16384a4.096 4.096 0 0 1 5.43744-3.39968l51.3536 18.6368a5.75488 5.75488 0 0 1 2.94912 8.42752c-6.49216 10.52672-19.5072 33.792-25.6 59.392z" fill="#353535" p-id="1761"></path><path d="M893.2864 100.38272l55.22432 14.65344-4.608 15.69792-55.9104-18.90304 5.29408-11.44832z" fill="#F5F4F4" opacity=".12" p-id="1762"></path><path d="M288.09216 372.14208l1.49504-2.048 102.4-7.39328s8.3456 6.05184 10.24 15.96416z" fill="#86BAB6" opacity=".21" p-id="1763"></path><path d="M360.6016 391.76192m-6.144 0a6.144 6.144 0 1 0 12.288 0 6.144 6.144 0 1 0-12.288 0Z" fill="#473F3F" p-id="1764"></path><path d="M398.81728 390.0416m-4.42368 0a4.42368 4.42368 0 1 0 8.84736 0 4.42368 4.42368 0 1 0-8.84736 0Z" fill="#473F3F" p-id="1765"></path><path d="M424.30464 479.42656s97.98656 99.87072-5.632 189.29664l-44.31872-47.79008s69.95968-45.74208 4.98688-133.80608l22.40512-15.02208z" fill="#C1382C" p-id="1766"></path><path d="M374.35392 620.93312l13.06624-11.9296 47.68768 43.64288-16.4352 16.0768-44.31872-47.79008zM383.8464 493.49632s33.15712-5.71392 41.73824-12.6976l14.58176 18.7904s-33.35168 12.21632-46.08 11.008z" fill="#B2322B" p-id="1767"></path><path d="M592.6912 562.0736s15.42144 5.5296 27.9552-1.16736l20.3776-19.33312-10.24-37.888z" fill="#B2322B" p-id="1768"></path><path d="M359.05536 515.18464m-7.0656 0a7.0656 7.0656 0 1 0 14.1312 0 7.0656 7.0656 0 1 0-14.1312 0Z" fill="#353535" p-id="1769"></path><path d="M359.05536 543.0784m-7.0656 0a7.0656 7.0656 0 1 0 14.1312 0 7.0656 7.0656 0 1 0-14.1312 0Z" fill="#353535" p-id="1770"></path><path d="M359.05536 573.10208m-7.0656 0a7.0656 7.0656 0 1 0 14.1312 0 7.0656 7.0656 0 1 0-14.1312 0Z" fill="#353535" p-id="1771"></path><path d="M269.81376 476.74368s-83.968 50.83136-116.736 55.95136c0 0 50.96448 80.14848 51.712 106.16832h13.02528l1.31072-9.91232-39.936-89.92768s39.99744-23.1424 69.15072-27.02336z" fill="#99764B" p-id="1772"></path><path d="M203.776 631.86944l-22.528 9.02144-10.57792-11.60192-4.096 5.80608S182.272 655.23712 183.296 658.30912c0 0 9.87136-7.70048 30.19776-11.19232l8.6528-15.81056-3.01056-2.3552z" fill="#99764B" p-id="1773"></path><path d="M153.088 532.69504l18.176 6.32832-12.63616 2.68288-5.53984-9.0112z" fill="#A88451" p-id="1774"></path><path d="M195.4304 575.58016l16.01536 71.90528 2.048-0.36864 8.6528-15.81056-3.09248-2.69312-23.62368-53.03296zM248.0128 489.44128l-14.31552 25.74336 14.65344-3.18464 21.46304-35.25632-21.80096 12.6976z" fill="#7F6241" opacity=".41" p-id="1775"></path><path d="M663.17312 452.608s-109.28128 185.01632 9.7792 211.968S811.008 569.73312 787.0464 533.01248s-38.912-51.5072-47.37024-79.63648z" fill="#C1382C" p-id="1776"></path><path d="M723.63008 532.35712s30.14656 48.0256 9.216 102.97344h25.00608s23.296-97.28 0-108.30848-34.22208 5.33504-34.22208 5.33504z" fill="#B2322B" p-id="1777"></path><path d="M657.24416 457.94304L641.024 491.99104s22.784 51.92704 104.96 46.4384c0 0 2.56-29.7984 2.56-30.5664s-37.12-33.28-37.12-33.28z" fill="#B2322B" p-id="1778"></path><path d="M720.98816 377.09824c14.08 8.9088 22.45632 24.4736 23.23456 41.1136s-2.44736 37.44768-21.504 45.78304c-33.51552 14.65344-40.96 21.34016-53.32992 3.24608s-2.95936-50.01216-1.3824-58.95168c1.3312-7.56736 19.27168-52.51072 52.98176-31.19104z" fill="#F3BE9E" p-id="1779"></path><path d="M663.48032 415.86688s-21.0944 32.91136 3.25632 64.69632 79.3088 2.89792 79.872-26.70592c0.49152-26.50112 1.62816-38.4-2.75456-52.82816s-15.64672-20.48-11.99104-26.96192-9.97376-20.48-15.1552-9.74848-15.36 5.34528-14.71488-0.22528c0.6656-5.92896-11.34592-9.216-14.99136 3.29728a29.25568 29.25568 0 0 1-6.56384 11.56096c-2.37568 2.59072-8.41728 7.54688-7.7824 11.7248 0 0-0.94208 6.25664 27.648 10.36288 0 0 18.49344-1.56672 13.47584 23.02976-2.048 10.1376-8.97024 11.49952-19.2512 12.68736-13.78304 1.57696-25.52832-7.60832-31.04768-20.8896z" fill="#F5F4F4" p-id="1780"></path><path d="M720.29184 433.26464c0.5632-1.77152 1.13664-3.5328 1.62816-5.3248 1.54624-5.59104 5.84704-15.77984 15.44192-7.7824 12.78976 10.65984-10.83392 31.0784-16.73216 20.0192a8.9088 8.9088 0 0 1-0.33792-6.912z" fill="#F3BE9E" p-id="1781"></path><path d="M665.68192 411.41248c-6.69696 1.3824-22.79424 5.94944-19.22048 17.408 0 0 4.15744 8.94976 15.9232-5.12 3.56352-4.28032 5.25312-7.168 6.00064-9.1136a2.36544 2.36544 0 0 0-2.70336-3.1744z" fill="#FF615F" p-id="1782"></path><path d="M678.476781 415.927071a3.7376 5.33504 14.8 1 0 2.725626-10.316083 3.7376 5.33504 14.8 1 0-2.725626 10.316083Z" fill="#473F3F" p-id="1783"></path><path d="M637.06112 651.60192L653.824 793.8048h28.9792l19.05664-130.43712-64.79872-11.76576z" fill="#263644" p-id="1784"></path><path d="M628.04992 635.33056h147.6096L760.6272 793.8048h-29.696l-16.384-94.94528a27.99616 27.99616 0 0 0-22.3232-23.552c-23.26528-4.58752-59.79136-15.63648-64.17408-39.97696z" fill="#2D3F51" p-id="1785"></path><path d="M762.59328 469.27872C782.61248 489.472 808.96 532.13184 794.2656 609.80224c0 0-10.47552 32.768-25.26208 50.51392l-26.624-19.58912s36.34176-72.57088-7.65952-116.9408c-19.93728-20.11136-20.08064-36.29056-14.27456-47.9744 7.96672-15.98464 29.58336-19.21024 42.14784-6.53312z" fill="#D83939" p-id="1786"></path><path d="M744.98048 642.62144l-6.67648 7.3216L754.944 675.84A54.6816 54.6816 0 0 0 765.952 658.05312z" fill="#F3BE9E" p-id="1787"></path><path d="M595.78368 515.072l41.24672-52.64384 18.11456 14.17216-28.84608 65.82272a36.53632 36.53632 0 0 1-16.27136 17.80736c-7.43424 3.91168-16.83456 5.48864-24.6784-3.80928-10.78272-12.78976-6.42048-21.64736-2.63168-25.93792 4.44416-5.03808 8.9088-10.0864 13.06624-15.4112z" fill="#D83939" p-id="1788"></path><path d="M638.85312 463.872l-1.82272-1.42336s12.99456-31.744 30.23872-11.06944c12.41088 14.87872 3.3792 16.10752-2.65216 15.62624a6.52288 6.52288 0 0 0-6.35904 3.51232l-3.072 6.144z" fill="#F3BE9E" p-id="1789"></path><path d="M682.8032 793.8048v10.0352a8.93952 8.93952 0 0 1-8.93952 8.93952h-36.28032a5.89824 5.89824 0 0 1-3.72736-10.52672c4.15744-3.34848 10.67008-6.656 20.85888-8.448zM760.6272 793.8048v10.0352a8.93952 8.93952 0 0 1-8.93952 8.93952h-36.28032a5.89824 5.89824 0 0 1-3.72736-10.52672c4.15744-3.34848 10.67008-6.656 20.85888-8.448z" fill="#D83939" p-id="1790"></path><path d="M446.12608 300.32896m-7.936 0a7.936 7.936 0 1 0 15.872 0 7.936 7.936 0 1 0-15.872 0Z" fill="#C1E8E4" p-id="1791"></path><path d="M131.40992 668.7232m-7.936 0a7.936 7.936 0 1 0 15.872 0 7.936 7.936 0 1 0-15.872 0Z" fill="#C1E8E4" p-id="1792"></path><path d="M852.30592 679.81312m-7.936 0a7.936 7.936 0 1 0 15.872 0 7.936 7.936 0 1 0-15.872 0Z" fill="#C1E8E4" p-id="1793"></path><path d="M562.49344 483.69664m-5.51936 0a5.51936 5.51936 0 1 0 11.03872 0 5.51936 5.51936 0 1 0-11.03872 0Z" fill="#C1E8E4" p-id="1794"></path><path d="M227.66592 448.88064m-5.51936 0a5.51936 5.51936 0 1 0 11.03872 0 5.51936 5.51936 0 1 0-11.03872 0Z" fill="#C1E8E4" p-id="1795"></path><path d="M568.0128 674.8672m-5.51936 0a5.51936 5.51936 0 1 0 11.03872 0 5.51936 5.51936 0 1 0-11.03872 0Z" fill="#C1E8E4" p-id="1796"></path><path d="M816.9472 508.11904m-5.51936 0a5.51936 5.51936 0 1 0 11.03872 0 5.51936 5.51936 0 1 0-11.03872 0Z" fill="#C1E8E4" p-id="1797"></path><path d="M617.37984 331.4688m-5.51936 0a5.51936 5.51936 0 1 0 11.03872 0 5.51936 5.51936 0 1 0-11.03872 0Z" fill="#C1E8E4" p-id="1798"></path><path d="M738.304 812.7488s22.92736-28.49792 84.1728-18.93376S903.92576 809.984 903.92576 809.984 742.4 824.1664 738.304 812.7488zM744.31488 115.5584c-2.85696 1.36192-36.21888 23.40864-21.88288 35.69664s19.456-22.4768 37.376-26.08128 9.984-21.74976-15.49312-9.61536zM887.99232 211.15904s-18.61632-1.536-12.98432 8.704 24.576 19.84512 34.304 8.89856-21.31968-17.60256-21.31968-17.60256zM783.55456 259.44064a6.03136 6.03136 0 0 1-2.048-11.6224c8.2944-3.40992 19.95776-5.34528 35.1232-1.34144 34.304 9.0624 54.272-3.9424 59.904-2.56s45.056 6.43072 18.432 18.7904c-1.67936 0.77824-76.50304-1.9456-111.4112-3.26656z" fill="#C1E8E4" p-id="1799"></path></svg>